<svg width="56" height="56" viewBox="0 0 56 56" fill="none" xmlns="http://www.w3.org/2000/svg">
<path d="M24.4563 39.7079C24.4967 39.7276 24.5412 39.7378 24.5862 39.7378C24.6312 39.7378 24.6756 39.7276 24.7161 39.7079C26.9159 38.647 29.6192 36.946 30.3555 35.7175C30.5842 35.3575 30.7298 34.951 30.7815 34.5276C30.8333 34.1042 30.79 33.6746 30.6548 33.2701C30.5385 32.9622 30.352 32.6857 30.11 32.4626C29.868 32.2395 29.5772 32.076 29.2609 31.9852C28.2284 31.6527 27.3836 32.3697 26.2084 33.4985C25.9844 33.7137 25.7661 33.9229 25.5522 34.111C25.285 34.3461 24.9412 34.4757 24.5853 34.4757C24.2294 34.4757 23.8857 34.3461 23.6184 34.111C23.3923 33.9115 23.163 33.6888 22.9285 33.46C21.966 32.5207 21.2621 31.9025 20.4413 31.9025C20.2578 31.9041 20.0756 31.9336 19.901 31.99C19.5917 32.0695 19.3046 32.2188 19.0619 32.4264C18.8193 32.634 18.6274 32.8945 18.501 33.1879C18.3651 33.6123 18.3243 34.0614 18.3815 34.5033C18.4386 34.9453 18.5924 35.3692 18.8318 35.7451C19.4867 36.925 22.1283 38.5849 24.4563 39.7079Z" fill="#81D0D9"/>
<path d="M48.8994 14.7481C48.8192 14.171 48.6185 13.6171 48.3102 13.1227C48.0019 12.6282 47.593 12.2042 47.11 11.8781C47.6365 12.7086 47.913 13.673 47.9063 14.6563V48.2344C47.9327 49.4666 47.4991 50.6645 46.69 51.5944H50.0544C50.4847 51.6091 50.913 51.5282 51.3083 51.3573C51.7036 51.1865 52.056 50.9301 52.3402 50.6066C52.6244 50.2831 52.8332 49.9005 52.9516 49.4865C53.0701 49.0725 53.0951 48.6374 53.025 48.2125L48.8994 14.7481Z" fill="#81D0D9"/>
<path d="M42.6562 11.1563H40.7181C41.0112 12.1844 41.7506 12.9325 42.5906 12.9325C42.8227 12.9325 43.0452 13.0247 43.2093 13.1888C43.3734 13.3529 43.4656 13.5754 43.4656 13.8075C43.4656 14.0396 43.3734 14.2621 43.2093 14.4262C43.0452 14.5903 42.8227 14.6825 42.5906 14.6825C40.8013 14.6825 39.2962 13.1731 38.92 11.1563H31.9506C32.2437 12.1844 32.9875 12.9325 33.8275 12.9325C34.0596 12.9325 34.2821 13.0247 34.4462 13.1888C34.6103 13.3529 34.7025 13.5754 34.7025 13.8075C34.7025 14.0396 34.6103 14.2621 34.4462 14.4262C34.2821 14.5903 34.0596 14.6825 33.8275 14.6825C32.0338 14.6825 30.5288 13.1731 30.1525 11.1563H23.1831C23.4763 12.1844 24.22 12.9325 25.06 12.9325C25.2921 12.9325 25.5146 13.0247 25.6787 13.1888C25.8428 13.3529 25.935 13.5754 25.935 13.8075C25.935 14.0396 25.8428 14.2621 25.6787 14.4262C25.5146 14.5903 25.2921 14.6825 25.06 14.6825C23.2706 14.6825 21.7656 13.1731 21.385 11.1563H14.3544C14.6475 12.1844 15.3913 12.9325 16.2313 12.9325C16.4633 12.9325 16.6859 13.0247 16.85 13.1888C17.0141 13.3529 17.1063 13.5754 17.1063 13.8075C17.1063 14.0396 17.0141 14.2621 16.85 14.4262C16.6859 14.5903 16.4633 14.6825 16.2313 14.6825C14.4375 14.6825 12.9325 13.1731 12.5563 11.1563H6.50125C6.14319 11.1553 5.78727 11.2114 5.44688 11.3225C5.57809 11.6742 5.80647 11.9813 6.10543 12.2083C6.40439 12.4352 6.76165 12.5726 7.13563 12.6044C7.36769 12.6044 7.59025 12.6966 7.75435 12.8607C7.91844 13.0248 8.01063 13.2473 8.01063 13.4794C8.01063 13.7115 7.91844 13.934 7.75435 14.0981C7.59025 14.2622 7.36769 14.3544 7.13563 14.3544C6.4646 14.329 5.81336 14.1202 5.25263 13.7508C4.6919 13.3813 4.24311 12.8653 3.955 12.2588C3.34191 12.9064 3.00055 13.7645 3.00125 14.6563V19.25H46.1562V14.6563C46.155 13.7284 45.7858 12.8389 45.1297 12.1828C44.4736 11.5267 43.5841 11.1575 42.6562 11.1563Z" fill="#81D0D9"/>
<path d="M3.00125 48.2344C3.00252 49.1622 3.37168 50.0517 4.02778 50.7078C4.68389 51.3639 5.57338 51.7331 6.50125 51.7344H42.6562C43.2451 51.7388 43.8253 51.5924 44.3415 51.3091C44.8577 51.0257 45.2927 50.6148 45.605 50.1156C45.962 49.5529 46.1531 48.9008 46.1562 48.2344V21H3.00125V48.2344ZM27.2033 47.3594H21.9533C21.7212 47.3594 21.4987 47.2672 21.3346 47.1031C21.1705 46.939 21.0783 46.7164 21.0783 46.4844C21.0783 46.2523 21.1705 46.0298 21.3346 45.8657C21.4987 45.7016 21.7212 45.6094 21.9533 45.6094H27.2033C27.4354 45.6094 27.6579 45.7016 27.822 45.8657C27.9861 46.0298 28.0783 46.2523 28.0783 46.4844C28.0783 46.7164 27.9861 46.939 27.822 47.1031C27.6579 47.2672 27.4354 47.3594 27.2033 47.3594ZM34.7288 23.8438H39.9787C40.2108 23.8438 40.4334 23.9359 40.5975 24.1C40.7616 24.2641 40.8537 24.4867 40.8537 24.7188C40.8537 24.9508 40.7616 25.1734 40.5975 25.3375C40.4334 25.5016 40.2108 25.5938 39.9787 25.5938H34.7288C34.4967 25.5938 34.2741 25.5016 34.11 25.3375C33.9459 25.1734 33.8538 24.9508 33.8538 24.7188C33.8538 24.4867 33.9459 24.2641 34.11 24.1C34.2741 23.9359 34.4967 23.8438 34.7288 23.8438ZM34.7288 34.6566H39.9787C40.2108 34.6566 40.4334 34.7488 40.5975 34.9128C40.7616 35.0769 40.8537 35.2995 40.8537 35.5316C40.8537 35.7636 40.7616 35.9862 40.5975 36.1503C40.4334 36.3144 40.2108 36.4066 39.9787 36.4066H34.7288C34.4967 36.4066 34.2741 36.3144 34.11 36.1503C33.9459 35.9862 33.8538 35.7636 33.8538 35.5316C33.8538 35.2995 33.9459 35.0769 34.11 34.9128C34.2741 34.7488 34.4967 34.6566 34.7288 34.6566ZM34.7288 45.0319H39.9787C40.2108 45.0319 40.4334 45.1241 40.5975 45.2882C40.7616 45.4522 40.8537 45.6748 40.8537 45.9069C40.8537 46.1389 40.7616 46.3615 40.5975 46.5256C40.4334 46.6897 40.2108 46.7819 39.9787 46.7819H34.7288C34.4967 46.7819 34.2741 46.6897 34.11 46.5256C33.9459 46.3615 33.8538 46.1389 33.8538 45.9069C33.8538 45.6748 33.9459 45.4522 34.11 45.2882C34.2741 45.1241 34.4967 45.0319 34.7288 45.0319ZM21.9538 23.7956H27.2038C27.4358 23.7956 27.6584 23.8878 27.8225 24.0519C27.9866 24.216 28.0788 24.4386 28.0788 24.6706C28.0788 24.9027 27.9866 25.1252 27.8225 25.2893C27.6584 25.4534 27.4358 25.5456 27.2038 25.5456H21.9538C21.7217 25.5456 21.4991 25.4534 21.335 25.2893C21.1709 25.1252 21.0788 24.9027 21.0788 24.6706C21.0788 24.4386 21.1709 24.216 21.335 24.0519C21.4991 23.8878 21.7217 23.7956 21.9538 23.7956ZM16.8788 32.5334C17.1022 31.9988 17.4438 31.5219 17.878 31.1383C18.3122 30.7547 18.8276 30.4745 19.3856 30.3188C21.5324 29.6529 23.0405 31.1373 24.1544 32.2092C24.5796 32.6196 24.8601 32.3724 24.9992 32.2385C26.1367 31.1448 27.6981 29.645 29.8003 30.3218C30.3674 30.4933 30.8873 30.7932 31.3198 31.1981C31.7523 31.6031 32.0856 32.1022 32.2941 32.6567C32.5213 33.308 32.5999 34.0019 32.5242 34.6875C32.4485 35.3732 32.2204 36.0332 31.8566 36.6192C30.5799 38.7485 26.3178 40.8809 25.4765 41.2864C25.1991 41.4212 24.8948 41.4912 24.5864 41.4912C24.278 41.4912 23.9737 41.4212 23.6963 41.2864C22.4809 40.7002 18.4288 38.6304 17.3014 36.5929C16.9343 35.99 16.7059 35.3129 16.6328 34.6108C16.5597 33.9086 16.6437 33.199 16.8788 32.5334ZM8.75 24.4212H14C14.2321 24.4212 14.4546 24.5134 14.6187 24.6775C14.7828 24.8416 14.875 25.0642 14.875 25.2962C14.875 25.5283 14.7828 25.7509 14.6187 25.915C14.4546 26.0791 14.2321 26.1712 14 26.1712H8.75C8.51794 26.1712 8.29538 26.0791 8.13128 25.915C7.96719 25.7509 7.875 25.5283 7.875 25.2962C7.875 25.0642 7.96719 24.8416 8.13128 24.6775C8.29538 24.5134 8.51794 24.4212 8.75 24.4212ZM8.75 35.2341H14C14.2321 35.2341 14.4546 35.3263 14.6187 35.4903C14.7828 35.6544 14.875 35.877 14.875 36.1091C14.875 36.3411 14.7828 36.5637 14.6187 36.7278C14.4546 36.8919 14.2321 36.9841 14 36.9841H8.75C8.51794 36.9841 8.29538 36.8919 8.13128 36.7278C7.96719 36.5637 7.875 36.3411 7.875 36.1091C7.875 35.877 7.96719 35.6544 8.13128 35.4903C8.29538 35.3263 8.51794 35.2341 8.75 35.2341ZM8.75 45.6094H14C14.2321 45.6094 14.4546 45.7016 14.6187 45.8657C14.7828 46.0298 14.875 46.2523 14.875 46.4844C14.875 46.7164 14.7828 46.939 14.6187 47.1031C14.4546 47.2672 14.2321 47.3594 14 47.3594H8.75C8.51794 47.3594 8.29538 47.2672 8.13128 47.1031C7.96719 46.939 7.875 46.7164 7.875 46.4844C7.875 46.2523 7.96719 46.0298 8.13128 45.8657C8.29538 45.7016 8.51794 45.6094 8.75 45.6094Z" fill="#81D0D9"/>
<path d="M40.6591 9.40626C40.9076 8.26526 41.6916 7.40469 42.5924 7.40469C43.4932 7.40469 44.2776 8.26526 44.5261 9.40626H44.8573C45.3547 9.40822 45.8495 9.47859 46.3277 9.61538C46.0989 7.38719 44.5126 5.65469 42.5924 5.65469C40.733 5.65469 39.1882 7.28001 38.8841 9.40626H40.6591Z" fill="#81D0D9"/>
<path d="M31.8938 9.40626C32.1423 8.26526 32.9263 7.40469 33.8271 7.40469C34.7279 7.40469 35.5123 8.26526 35.7608 9.40626H37.5375C37.2313 7.28001 35.6882 5.65469 33.8288 5.65469C31.9694 5.65469 30.4224 7.28001 30.1184 9.40626H31.8938Z" fill="#81D0D9"/>
<path d="M23.1276 9.40626C23.3761 8.26526 24.1601 7.40469 25.0609 7.40469C25.9617 7.40469 26.7457 8.26526 26.9946 9.40626H28.7696C28.4633 7.28001 26.9203 5.65469 25.0609 5.65469C23.2015 5.65469 21.6563 7.28001 21.3526 9.40626H23.1276Z" fill="#81D0D9"/>
<path d="M14.2962 9.40626C14.5447 8.26526 15.3287 7.40469 16.2299 7.40469C17.1312 7.40469 17.9148 8.26526 18.1633 9.40626H19.9382C19.6319 7.28001 18.0893 5.65469 16.2299 5.65469C14.3706 5.65469 12.8253 7.28001 12.5213 9.40626H14.2962Z" fill="#81D0D9"/>
<path d="M5.12838 9.59438C5.22244 8.20576 6.10313 7.07526 7.13606 7.07526C8.12175 7.07526 8.96656 8.10557 9.12406 9.40626H10.8841C10.7013 7.11988 9.09038 5.32526 7.13606 5.32526C5.05838 5.32526 3.36875 7.35088 3.36875 9.84026C3.3699 10.0359 3.38173 10.2313 3.40419 10.4256C3.92292 10.0449 4.50743 9.7631 5.12838 9.59438Z" fill="#81D0D9"/>
</svg>
