<svg width="143" height="22" viewBox="0 0 143 22" fill="none" xmlns="http://www.w3.org/2000/svg">
<path d="M6.264 21.832C5.544 21.832 4.92 21.8 4.392 21.736C3.88 21.672 3.44 21.52 3.072 21.28C2.704 21.056 2.4 20.712 2.16 20.248C1.936 19.784 1.736 19.16 1.56 18.376C1.4 17.592 1.256 16.616 1.128 15.448C1.016 14.264 0.896 12.84 0.768 11.176C0.64 9.512 0.536 8.096 0.456 6.928C0.392 5.744 0.36 4.76 0.36 3.976C0.376 3.192 0.432 2.568 0.528 2.104C0.64 1.64 0.808 1.296 1.032 1.072C1.256 0.831999 1.544 0.679999 1.896 0.615999C2.248 0.551999 2.68 0.519999 3.192 0.519999C3.96 0.519999 4.56 0.583999 4.992 0.711999C5.44 0.823999 5.784 1.128 6.024 1.624C6.28 2.104 6.464 2.84 6.576 3.832C6.704 4.808 6.824 6.152 6.936 7.864C7.048 9.592 7.136 10.944 7.2 11.92C7.264 12.896 7.312 13.632 7.344 14.128C7.392 14.624 7.424 14.936 7.44 15.064C7.456 15.176 7.48 15.232 7.512 15.232C7.528 15.232 7.544 15.176 7.56 15.064C7.592 14.936 7.624 14.624 7.656 14.128C7.704 13.632 7.76 12.896 7.824 11.92C7.904 10.944 8.008 9.592 8.136 7.864C8.248 6.152 8.368 4.808 8.496 3.832C8.624 2.84 8.808 2.104 9.048 1.624C9.304 1.128 9.656 0.823999 10.104 0.711999C10.552 0.583999 11.16 0.519999 11.928 0.519999C12.696 0.519999 13.304 0.583999 13.752 0.711999C14.2 0.823999 14.544 1.128 14.784 1.624C15.04 2.104 15.232 2.84 15.36 3.832C15.488 4.808 15.616 6.152 15.744 7.864C15.856 9.592 15.944 10.944 16.008 11.92C16.088 12.896 16.144 13.632 16.176 14.128C16.224 14.624 16.256 14.936 16.272 15.064C16.288 15.176 16.312 15.232 16.344 15.232C16.36 15.232 16.376 15.176 16.392 15.064C16.424 14.936 16.456 14.624 16.488 14.128C16.536 13.632 16.592 12.896 16.656 11.92C16.72 10.944 16.808 9.592 16.92 7.864C17.032 6.152 17.144 4.808 17.256 3.832C17.384 2.84 17.568 2.104 17.808 1.624C18.064 1.128 18.408 0.823999 18.84 0.711999C19.288 0.583999 19.896 0.519999 20.664 0.519999C21.176 0.519999 21.608 0.551999 21.96 0.615999C22.312 0.679999 22.6 0.831999 22.824 1.072C23.048 1.296 23.208 1.64 23.304 2.104C23.416 2.568 23.472 3.192 23.472 3.976C23.488 4.76 23.456 5.744 23.376 6.928C23.312 8.096 23.216 9.512 23.088 11.176C22.96 12.84 22.832 14.264 22.704 15.448C22.592 16.616 22.448 17.592 22.272 18.376C22.112 19.16 21.912 19.784 21.672 20.248C21.448 20.712 21.152 21.056 20.784 21.28C20.432 21.52 19.992 21.672 19.464 21.736C18.952 21.8 18.336 21.832 17.616 21.832C16.528 21.832 15.664 21.784 15.024 21.688C14.4 21.592 13.92 21.352 13.584 20.968C13.248 20.584 13.008 20.008 12.864 19.24C12.736 18.472 12.616 17.416 12.504 16.072C12.392 14.728 12.304 13.672 12.24 12.904C12.176 12.136 12.12 11.568 12.072 11.2C12.04 10.816 12.008 10.576 11.976 10.48C11.96 10.384 11.944 10.336 11.928 10.336C11.896 10.336 11.872 10.384 11.856 10.48C11.84 10.576 11.808 10.816 11.76 11.2C11.728 11.568 11.68 12.136 11.616 12.904C11.568 13.672 11.488 14.728 11.376 16.072C11.264 17.416 11.136 18.472 10.992 19.24C10.848 20.008 10.608 20.584 10.272 20.968C9.936 21.352 9.456 21.592 8.832 21.688C8.208 21.784 7.352 21.832 6.264 21.832ZM13.152 1.792C13.152 1.92 13.224 2.056 13.368 2.2C13.528 2.328 13.672 2.392 13.8 2.392C13.928 2.392 14.024 2.352 14.088 2.272C14.168 2.192 14.208 2.088 14.208 1.96C14.208 1.816 14.136 1.68 13.992 1.552C13.848 1.424 13.712 1.36 13.584 1.36C13.456 1.36 13.352 1.4 13.272 1.48C13.192 1.56 13.152 1.664 13.152 1.792ZM4.248 1.792C4.248 1.92 4.32 2.056 4.464 2.2C4.624 2.328 4.768 2.392 4.896 2.392C5.024 2.392 5.12 2.352 5.184 2.272C5.264 2.192 5.304 2.088 5.304 1.96C5.304 1.816 5.232 1.68 5.088 1.552C4.944 1.424 4.808 1.36 4.68 1.36C4.552 1.36 4.448 1.4 4.368 1.48C4.288 1.56 4.248 1.664 4.248 1.792ZM21.384 1.792C21.384 1.92 21.456 2.056 21.6 2.2C21.76 2.328 21.904 2.392 22.032 2.392C22.16 2.392 22.256 2.352 22.32 2.272C22.4 2.192 22.44 2.088 22.44 1.96C22.44 1.816 22.368 1.68 22.224 1.552C22.08 1.424 21.944 1.36 21.816 1.36C21.688 1.36 21.584 1.4 21.504 1.48C21.424 1.56 21.384 1.664 21.384 1.792ZM31.4914 16.408C31.4914 16.776 31.5394 17.064 31.6354 17.272C31.7314 17.464 31.9394 17.56 32.2594 17.56H33.1234C33.5714 17.544 33.8194 17.28 33.8674 16.768C33.8994 16.448 34.0674 16.288 34.3714 16.288H40.4434C40.7634 16.288 40.9234 16.448 40.9234 16.768V17.056C40.9234 18.736 40.4914 19.968 39.6274 20.752C38.7634 21.552 37.5074 21.952 35.8594 21.952H29.5234C27.8754 21.952 26.6194 21.552 25.7554 20.752C24.8914 19.968 24.4594 18.736 24.4594 17.056V10.984C24.4594 9.304 24.8914 8.072 25.7554 7.288C26.6194 6.488 27.8754 6.088 29.5234 6.088H35.8594C37.5074 6.088 38.7634 6.488 39.6274 7.288C40.4914 8.072 40.9234 9.304 40.9234 10.984V13.024C40.9234 13.744 40.6994 14.328 40.2514 14.776C39.8194 15.208 39.2434 15.424 38.5234 15.424H31.4914V16.408ZM37.6594 7.912C38.2514 8.28 38.6434 8.68 38.8354 9.112C38.8994 9.24 38.9874 9.328 39.0994 9.376C39.2114 9.408 39.3154 9.408 39.4114 9.376C39.5074 9.344 39.5794 9.272 39.6274 9.16C39.6754 9.048 39.6594 8.912 39.5794 8.752C39.4194 8.432 39.2034 8.144 38.9314 7.888C38.6754 7.632 38.4114 7.408 38.1394 7.216C38.0114 7.136 37.8754 7.088 37.7314 7.072C37.6034 7.056 37.4914 7.112 37.3954 7.24C37.2834 7.384 37.2674 7.512 37.3474 7.624C37.4274 7.736 37.5314 7.832 37.6594 7.912ZM39.5554 10.96C39.8114 11.072 39.9954 11 40.1074 10.744C40.1874 10.616 40.1874 10.464 40.1074 10.288C40.0434 10.112 39.9474 9.992 39.8194 9.928C39.7074 9.88 39.5954 9.88 39.4834 9.928C39.3714 9.96 39.2914 10.032 39.2434 10.144C39.1794 10.272 39.1874 10.432 39.2674 10.624C39.3474 10.8 39.4434 10.912 39.5554 10.96ZM33.8914 12.52V11.632C33.8914 11.264 33.8434 10.984 33.7474 10.792C33.6514 10.584 33.4434 10.48 33.1234 10.48H32.2594C31.9394 10.48 31.7314 10.584 31.6354 10.792C31.5394 10.984 31.4914 11.264 31.4914 11.632V12.52H33.8914ZM42.5873 16.912C42.5553 16.192 42.5313 15.36 42.5153 14.416C42.4993 13.456 42.4913 12.376 42.4913 11.176C42.4913 9.512 42.4993 8.096 42.5153 6.928C42.5473 5.744 42.6033 4.76 42.6833 3.976C42.7633 3.192 42.8833 2.568 43.0433 2.104C43.2193 1.64 43.4433 1.296 43.7153 1.072C43.9873 0.831999 44.3313 0.679999 44.7473 0.615999C45.1633 0.551999 45.6593 0.519999 46.2353 0.519999C46.8273 0.519999 47.3233 0.551999 47.7233 0.615999C48.1393 0.679999 48.4833 0.831999 48.7553 1.072C49.0433 1.296 49.2673 1.64 49.4273 2.104C49.5873 2.568 49.7073 3.192 49.7873 3.976C49.8673 4.76 49.9153 5.744 49.9313 6.928C49.9633 8.096 49.9793 9.512 49.9793 11.176C49.9793 12.088 49.9713 12.936 49.9553 13.72C49.9553 14.488 49.9473 15.184 49.9313 15.808C49.9313 16.416 50.1873 16.72 50.6993 16.72H50.9393C51.0833 16.72 51.2033 16.744 51.2993 16.792C51.4113 16.824 51.4993 16.928 51.5633 17.104C51.6433 17.264 51.6993 17.52 51.7313 17.872C51.7793 18.208 51.8033 18.672 51.8033 19.264C51.8033 19.856 51.7713 20.32 51.7073 20.656C51.6593 21.008 51.5473 21.264 51.3713 21.424C51.2113 21.6 50.9793 21.704 50.6753 21.736C50.3873 21.784 50.0033 21.808 49.5233 21.808H47.6513C46.0033 21.808 44.7633 21.424 43.9313 20.656C43.0993 19.888 42.6513 18.64 42.5873 16.912ZM47.6033 1.792C47.6033 1.92 47.6753 2.056 47.8193 2.2C47.9793 2.328 48.1233 2.392 48.2513 2.392C48.3793 2.392 48.4753 2.352 48.5393 2.272C48.6193 2.192 48.6593 2.088 48.6593 1.96C48.6593 1.816 48.5873 1.68 48.4433 1.552C48.2993 1.424 48.1633 1.36 48.0353 1.36C47.9073 1.36 47.8033 1.4 47.7233 1.48C47.6433 1.56 47.6033 1.664 47.6033 1.792ZM52.3969 14.032C52.3969 12.496 52.4929 11.216 52.6849 10.192C52.8929 9.168 53.2929 8.352 53.8849 7.744C54.4769 7.12 55.3089 6.68 56.3809 6.424C57.4689 6.168 58.8929 6.04 60.6529 6.04C62.1409 6.04 63.3729 6.136 64.3489 6.328C65.3409 6.52 66.1329 6.856 66.7249 7.336C67.3329 7.816 67.7569 8.464 67.9969 9.28C68.2529 10.096 68.3809 11.136 68.3809 12.4C68.3809 12.72 68.3089 12.96 68.1649 13.12C68.0369 13.28 67.7329 13.36 67.2529 13.36H62.8849C62.4529 13.36 62.1729 13.304 62.0449 13.192C61.9169 13.08 61.8529 12.872 61.8529 12.568V12.088C61.8529 11.816 61.7569 11.632 61.5649 11.536C61.3889 11.424 61.0529 11.368 60.5569 11.368C60.0769 11.368 59.7409 11.464 59.5489 11.656C59.3729 11.848 59.2849 12.152 59.2849 12.568V15.544C59.2849 15.928 59.3729 16.224 59.5489 16.432C59.7249 16.624 60.0609 16.72 60.5569 16.72C61.0529 16.72 61.3889 16.656 61.5649 16.528C61.7569 16.4 61.8529 16.232 61.8529 16.024V15.568C61.8529 14.96 62.2369 14.656 63.0049 14.656H67.2529C67.7329 14.656 68.0369 14.736 68.1649 14.896C68.3089 15.04 68.3809 15.272 68.3809 15.592C68.3809 16.872 68.2369 17.92 67.9489 18.736C67.6769 19.552 67.2289 20.2 66.6049 20.68C65.9809 21.16 65.1649 21.488 64.1569 21.664C63.1649 21.856 61.9489 21.952 60.5089 21.952C58.7489 21.952 57.3329 21.808 56.2609 21.52C55.2049 21.248 54.3889 20.8 53.8129 20.176C53.2369 19.552 52.8529 18.736 52.6609 17.728C52.4849 16.72 52.3969 15.488 52.3969 14.032ZM65.0209 8.104C65.6129 8.472 66.0049 8.872 66.1969 9.304C66.2609 9.432 66.3489 9.52 66.4609 9.568C66.5729 9.6 66.6769 9.6 66.7729 9.568C66.8689 9.536 66.9409 9.464 66.9889 9.352C67.0369 9.24 67.0209 9.104 66.9409 8.944C66.7809 8.624 66.5649 8.336 66.2929 8.08C66.0369 7.824 65.7729 7.6 65.5009 7.408C65.3729 7.328 65.2369 7.28 65.0929 7.264C64.9649 7.248 64.8529 7.304 64.7569 7.432C64.6449 7.576 64.6289 7.704 64.7089 7.816C64.7889 7.928 64.8929 8.024 65.0209 8.104ZM73.6566 6.064C73.4326 5.84 73.3206 5.576 73.3206 5.272C73.3206 4.968 73.4326 4.704 73.6566 4.48C73.8806 4.256 74.1446 4.144 74.4486 4.144C74.7526 4.144 75.0166 4.256 75.2406 4.48L75.5286 4.768L75.3366 4.024C75.2566 3.72 75.2966 3.44 75.4566 3.184C75.6166 2.912 75.8486 2.736 76.1526 2.656C76.4566 2.576 76.7366 2.616 76.9926 2.776C77.2646 2.936 77.4406 3.168 77.5206 3.472L77.6646 4.048L77.8086 3.472C77.8886 3.168 78.0566 2.936 78.3126 2.776C78.5846 2.616 78.8726 2.576 79.1766 2.656C79.4806 2.736 79.7046 2.912 79.8486 3.184C80.0086 3.44 80.0486 3.72 79.9686 4.024L79.7766 4.792L80.0886 4.48C80.3126 4.256 80.5766 4.144 80.8806 4.144C81.1846 4.144 81.4486 4.256 81.6726 4.48C81.8966 4.704 82.0086 4.968 82.0086 5.272C82.0086 5.576 81.8966 5.84 81.6726 6.064L81.5526 6.184C82.8806 6.376 83.9126 6.848 84.6486 7.6C85.3846 8.352 85.7526 9.328 85.7526 10.528V17.512C85.7526 18.904 85.2646 19.992 84.2886 20.776C83.3126 21.56 81.9606 21.952 80.2326 21.952H75.0966C73.3846 21.952 72.0326 21.56 71.0406 20.776C70.0646 19.992 69.5766 18.904 69.5766 17.512V10.528C69.5766 9.328 69.9446 8.352 70.6806 7.6C71.4166 6.848 72.4486 6.376 73.7766 6.184L73.6566 6.064ZM82.3446 7.96C82.6646 8.136 82.9206 8.32 83.1126 8.512C83.3046 8.688 83.4566 8.888 83.5686 9.112C83.6326 9.24 83.7206 9.32 83.8326 9.352C83.9606 9.384 84.0726 9.384 84.1686 9.352C84.2646 9.304 84.3286 9.224 84.3606 9.112C84.4086 9 84.3846 8.864 84.2886 8.704C84.1126 8.384 83.8886 8.104 83.6166 7.864C83.3446 7.624 83.0726 7.416 82.8006 7.24C82.6726 7.16 82.5366 7.12 82.3926 7.12C82.2486 7.104 82.1366 7.16 82.0566 7.288C81.9446 7.448 81.9286 7.584 82.0086 7.696C82.1046 7.792 82.2166 7.88 82.3446 7.96ZM84.3606 10.912C84.6166 11.024 84.8006 10.944 84.9126 10.672C84.9766 10.544 84.9686 10.4 84.8886 10.24C84.8246 10.064 84.7286 9.944 84.6006 9.88C84.4726 9.832 84.3526 9.832 84.2406 9.88C84.1446 9.928 84.0726 10.008 84.0246 10.12C83.9606 10.248 83.9686 10.408 84.0486 10.6C84.1446 10.776 84.2486 10.88 84.3606 10.912ZM78.1926 16.72C78.7846 16.704 79.0806 16.32 79.0806 15.568V12.472C79.0806 12.104 79.0086 11.824 78.8646 11.632C78.7366 11.424 78.5126 11.32 78.1926 11.32H77.0886C76.7686 11.32 76.5366 11.424 76.3926 11.632C76.2646 11.824 76.2006 12.104 76.2006 12.472V15.568C76.2006 15.936 76.2646 16.224 76.3926 16.432C76.5366 16.624 76.7686 16.72 77.0886 16.72H78.1926ZM93.0158 7.168C93.4318 6.864 93.9518 6.608 94.5758 6.4C95.1998 6.192 95.9358 6.088 96.7838 6.088C98.4958 6.088 99.7998 6.64 100.696 7.744C101.368 7.136 102.048 6.712 102.736 6.472C103.424 6.216 104.192 6.088 105.04 6.088C105.76 6.088 106.424 6.192 107.032 6.4C107.64 6.592 108.16 6.888 108.592 7.288C109.04 7.688 109.384 8.2 109.624 8.824C109.88 9.432 110.008 10.152 110.008 10.984C110.008 12.648 110 14.072 109.984 15.256C109.968 16.44 109.92 17.432 109.84 18.232C109.776 19.032 109.672 19.672 109.528 20.152C109.4 20.632 109.216 20.992 108.976 21.232C108.736 21.488 108.432 21.648 108.064 21.712C107.712 21.792 107.288 21.832 106.792 21.832C106.088 21.832 105.52 21.76 105.088 21.616C104.672 21.472 104.352 21.104 104.128 20.512C103.904 19.936 103.752 19.064 103.672 17.896C103.608 16.728 103.568 15.12 103.552 13.072C103.552 12.304 103.288 11.92 102.76 11.92H102.496C102.224 11.92 102.032 12.016 101.92 12.208C101.808 12.384 101.752 12.672 101.752 13.072C101.752 15.088 101.712 16.68 101.632 17.848C101.552 19.016 101.392 19.888 101.152 20.464C100.912 21.056 100.584 21.432 100.168 21.592C99.7518 21.752 99.2078 21.832 98.5358 21.832C97.8318 21.832 97.2638 21.76 96.8318 21.616C96.4158 21.472 96.0958 21.104 95.8718 20.512C95.6478 19.936 95.4958 19.064 95.4158 17.896C95.3518 16.728 95.3118 15.12 95.2958 13.072C95.2958 12.304 95.0318 11.92 94.5038 11.92H94.2398C93.9678 11.92 93.7758 12.016 93.6638 12.208C93.5518 12.384 93.4958 12.672 93.4958 13.072V13.984C93.4958 15.824 93.4718 17.272 93.4238 18.328C93.3758 19.368 93.2398 20.144 93.0158 20.656C92.8078 21.184 92.4878 21.512 92.0558 21.64C91.6238 21.768 91.0318 21.832 90.2798 21.832C89.5278 21.832 88.9358 21.768 88.5038 21.64C88.0718 21.512 87.7438 21.184 87.5198 20.656C87.3118 20.144 87.1838 19.368 87.1357 18.328C87.0878 17.272 87.0638 15.824 87.0638 13.984C87.0638 12.768 87.0718 11.728 87.0878 10.864C87.1038 9.984 87.1438 9.256 87.2078 8.68C87.2878 8.088 87.3918 7.616 87.5198 7.264C87.6638 6.912 87.8558 6.648 88.0958 6.472C88.3358 6.296 88.6318 6.184 88.9838 6.136C89.3358 6.072 89.7678 6.04 90.2798 6.04C90.9998 6.04 91.5678 6.128 91.9838 6.304C92.4158 6.464 92.7598 6.752 93.0158 7.168ZM106.864 8.2C107.456 8.568 107.848 8.968 108.04 9.4C108.104 9.528 108.192 9.616 108.304 9.664C108.416 9.696 108.52 9.696 108.616 9.664C108.712 9.632 108.784 9.56 108.832 9.448C108.88 9.336 108.864 9.2 108.784 9.04C108.624 8.72 108.408 8.432 108.136 8.176C107.88 7.92 107.616 7.696 107.344 7.504C107.216 7.424 107.08 7.376 106.936 7.36C106.808 7.344 106.696 7.4 106.6 7.528C106.488 7.672 106.472 7.8 106.552 7.912C106.632 8.024 106.736 8.12 106.864 8.2ZM118.234 16.408C118.234 16.776 118.282 17.064 118.378 17.272C118.474 17.464 118.682 17.56 119.002 17.56H119.866C120.314 17.544 120.562 17.28 120.61 16.768C120.642 16.448 120.81 16.288 121.114 16.288H127.186C127.506 16.288 127.666 16.448 127.666 16.768V17.056C127.666 18.736 127.234 19.968 126.37 20.752C125.506 21.552 124.25 21.952 122.602 21.952H116.266C114.618 21.952 113.362 21.552 112.498 20.752C111.634 19.968 111.202 18.736 111.202 17.056V10.984C111.202 9.304 111.634 8.072 112.498 7.288C113.362 6.488 114.618 6.088 116.266 6.088H122.602C124.25 6.088 125.506 6.488 126.37 7.288C127.234 8.072 127.666 9.304 127.666 10.984V13.024C127.666 13.744 127.442 14.328 126.994 14.776C126.562 15.208 125.986 15.424 125.266 15.424H118.234V16.408ZM124.402 7.912C124.994 8.28 125.386 8.68 125.578 9.112C125.642 9.24 125.73 9.328 125.842 9.376C125.954 9.408 126.058 9.408 126.154 9.376C126.25 9.344 126.322 9.272 126.37 9.16C126.418 9.048 126.402 8.912 126.322 8.752C126.162 8.432 125.946 8.144 125.674 7.888C125.418 7.632 125.154 7.408 124.882 7.216C124.754 7.136 124.618 7.088 124.474 7.072C124.346 7.056 124.234 7.112 124.138 7.24C124.026 7.384 124.01 7.512 124.09 7.624C124.17 7.736 124.274 7.832 124.402 7.912ZM126.298 10.96C126.554 11.072 126.738 11 126.85 10.744C126.93 10.616 126.93 10.464 126.85 10.288C126.786 10.112 126.69 9.992 126.562 9.928C126.45 9.88 126.338 9.88 126.226 9.928C126.114 9.96 126.034 10.032 125.986 10.144C125.922 10.272 125.93 10.432 126.01 10.624C126.09 10.8 126.186 10.912 126.298 10.96ZM120.634 12.52V11.632C120.634 11.264 120.586 10.984 120.49 10.792C120.394 10.584 120.186 10.48 119.866 10.48H119.002C118.682 10.48 118.474 10.584 118.378 10.792C118.282 10.984 118.234 11.264 118.234 11.632V12.52H120.634ZM138.713 14.464C137.865 14.464 137.193 14.408 136.697 14.296C136.217 14.184 135.857 13.904 135.617 13.456C135.377 12.992 135.225 12.296 135.161 11.368C135.097 10.44 135.065 9.168 135.065 7.552C135.065 5.936 135.097 4.664 135.161 3.736C135.225 2.808 135.377 2.12 135.617 1.672C135.857 1.208 136.217 0.919999 136.697 0.808C137.193 0.695999 137.865 0.639999 138.713 0.639999C139.561 0.639999 140.225 0.695999 140.705 0.808C141.201 0.919999 141.569 1.208 141.809 1.672C142.049 2.12 142.201 2.808 142.265 3.736C142.329 4.664 142.361 5.936 142.361 7.552C142.361 9.168 142.329 10.44 142.265 11.368C142.201 12.296 142.049 12.992 141.809 13.456C141.569 13.904 141.201 14.184 140.705 14.296C140.225 14.408 139.561 14.464 138.713 14.464ZM140.417 2.128C140.545 2.16 140.641 2.248 140.705 2.392C140.785 2.52 140.905 2.584 141.065 2.584C141.193 2.584 141.289 2.544 141.353 2.464C141.417 2.384 141.449 2.288 141.449 2.176C141.449 2.08 141.409 1.984 141.329 1.888C141.265 1.792 141.185 1.704 141.089 1.624C140.993 1.544 140.889 1.48 140.777 1.432C140.665 1.384 140.569 1.36 140.489 1.36C140.249 1.36 140.129 1.496 140.129 1.768C140.129 1.96 140.225 2.08 140.417 2.128ZM135.065 18.736C135.065 17.984 135.097 17.4 135.161 16.984C135.225 16.552 135.377 16.232 135.617 16.024C135.857 15.8 136.217 15.664 136.697 15.616C137.193 15.568 137.865 15.544 138.713 15.544C139.561 15.544 140.225 15.568 140.705 15.616C141.201 15.664 141.569 15.8 141.809 16.024C142.049 16.232 142.201 16.552 142.265 16.984C142.329 17.4 142.361 17.984 142.361 18.736C142.361 19.488 142.329 20.08 142.265 20.512C142.201 20.944 142.049 21.264 141.809 21.472C141.569 21.696 141.201 21.832 140.705 21.88C140.225 21.928 139.561 21.952 138.713 21.952C137.865 21.952 137.193 21.928 136.697 21.88C136.217 21.832 135.857 21.696 135.617 21.472C135.377 21.264 135.225 20.944 135.161 20.512C135.097 20.08 135.065 19.488 135.065 18.736ZM140.537 16.648C140.537 16.776 140.609 16.912 140.753 17.056C140.913 17.184 141.057 17.248 141.185 17.248C141.313 17.248 141.409 17.208 141.473 17.128C141.553 17.048 141.593 16.944 141.593 16.816C141.593 16.672 141.521 16.536 141.377 16.408C141.233 16.28 141.097 16.216 140.969 16.216C140.841 16.216 140.737 16.256 140.657 16.336C140.577 16.416 140.537 16.52 140.537 16.648Z" fill="#81D0D9"/>
</svg>
